<svg width="19" height="19" viewBox="0 0 19 19" fill="none" xmlns="http://www.w3.org/2000/svg">
<path d="M11.5833 18.5885V16.974C13.2674 16.4878 14.6432 15.5547 15.7109 14.1745C16.7786 12.7943 17.3125 11.2274 17.3125 9.47396C17.3125 7.72049 16.783 6.14931 15.724 4.76042C14.6649 3.37153 13.2847 2.44271 11.5833 1.97396V0.359375C13.7361 0.845486 15.4896 1.9349 16.8437 3.6276C18.1979 5.32031 18.875 7.2691 18.875 9.47396C18.875 11.6788 18.1979 13.6276 16.8437 15.3203C15.4896 17.013 13.7361 18.1024 11.5833 18.5885ZM0.125 12.625V6.375H4.29167L9.5 1.16667V17.8333L4.29167 12.625H0.125ZM11.0625 13.875V5.09896C12.0174 5.3941 12.7769 5.94965 13.3411 6.76562C13.9054 7.5816 14.1875 8.49306 14.1875 9.5C14.1875 10.4896 13.901 11.3924 13.3281 12.2083C12.7552 13.0243 12 13.5799 11.0625 13.875Z" fill="white"/>
</svg>
