<svg width="25" height="22" viewBox="0 0 25 22" fill="none" xmlns="http://www.w3.org/2000/svg">
<path d="M19.6023 16.6818V12.9886H15.9091V11.2841H19.6023V7.59092H21.3068V11.2841H25V12.9886H21.3068V16.6818H19.6023ZM11.3636 21.2273L7.75568 17.9886C6.39205 16.7576 5.22254 15.6591 4.24716 14.6932C3.27178 13.7273 2.46686 12.8182 1.83239 11.9659C1.19792 11.1136 0.733902 10.2898 0.440341 9.49433C0.14678 8.69887 0 7.86554 0 6.99433C0 5.21402 0.596591 3.73202 1.78977 2.5483C2.98295 1.36459 4.4697 0.772736 6.25 0.772736C7.23485 0.772736 8.17235 0.976334 9.0625 1.38353C9.95265 1.79073 10.7197 2.37311 11.3636 3.13069C12.0076 2.37311 12.7746 1.79073 13.6648 1.38353C14.5549 0.976334 15.4924 0.772736 16.4773 0.772736C18.0871 0.772736 19.4366 1.26042 20.5256 2.2358C21.6146 3.21118 22.2917 4.35228 22.5568 5.6591C22.2159 5.52652 21.875 5.42709 21.5341 5.3608C21.1932 5.29452 20.8617 5.26137 20.5398 5.26137C18.6269 5.26137 16.9981 5.92898 15.6534 7.26421C14.3087 8.59944 13.6364 10.2235 13.6364 12.1364C13.6364 13.1212 13.8352 14.054 14.233 14.9347C14.6307 15.8153 15.1894 16.5682 15.9091 17.1932C15.5492 17.5152 15.0805 17.9271 14.5028 18.429C13.9252 18.9309 13.428 19.3712 13.0114 19.75L11.3636 21.2273Z" fill="white"/>
</svg>
