<svg width="28" height="35" viewBox="0 0 28 35" fill="none" xmlns="http://www.w3.org/2000/svg">
<path d="M14 17.0625C14.8458 17.0625 15.5677 16.7635 16.1656 16.1656C16.7635 15.5677 17.0625 14.8458 17.0625 14C17.0625 13.1542 16.7635 12.4323 16.1656 11.8344C15.5677 11.2365 14.8458 10.9375 14 10.9375C13.1542 10.9375 12.4323 11.2365 11.8344 11.8344C11.2365 12.4323 10.9375 13.1542 10.9375 14C10.9375 14.8458 11.2365 15.5677 11.8344 16.1656C12.4323 16.7635 13.1542 17.0625 14 17.0625ZM14 31.5437C17.8792 28.0146 20.7448 24.8135 22.5969 21.9406C24.449 19.0677 25.375 16.5375 25.375 14.35C25.375 10.9083 24.274 8.09375 22.0719 5.90625C19.8698 3.71875 17.1792 2.625 14 2.625C10.8208 2.625 8.13021 3.71875 5.92812 5.90625C3.72604 8.09375 2.625 10.9083 2.625 14.35C2.625 16.5375 3.57292 19.0677 5.46875 21.9406C7.36458 24.8135 10.2083 28.0146 14 31.5437ZM14 35C9.30417 31.0042 5.79688 27.2927 3.47813 23.8656C1.15938 20.4385 0 17.2667 0 14.35C0 9.975 1.40729 6.48958 4.22187 3.89375C7.03646 1.29792 10.2958 0 14 0C17.7042 0 20.9635 1.29792 23.7781 3.89375C26.5927 6.48958 28 9.975 28 14.35C28 17.2667 26.8406 20.4385 24.5219 23.8656C22.2031 27.2927 18.6958 31.0042 14 35Z" fill="black" fill-opacity="0.7"/>
</svg>
