<svg width="24" height="26" viewBox="0 0 24 26" fill="none" xmlns="http://www.w3.org/2000/svg">
<path d="M13.9412 25.5L13.5882 22.0625H12.1765C8.81176 22.0625 5.94118 21.0104 3.56471 18.9062C1.18824 16.8021 0 14.2604 0 11.2812C0 8.30208 1.19412 5.76042 3.58235 3.65625C5.97059 1.55208 8.85882 0.5 12.2471 0.5C13.9176 0.5 15.4647 0.765625 16.8882 1.29688C18.3118 1.82813 19.5529 2.57292 20.6118 3.53125C21.6706 4.48958 22.5 5.61979 23.1 6.92188C23.7 8.22396 24 9.64583 24 11.1875C24 12.5625 23.7706 13.9375 23.3118 15.3125C22.8529 16.6875 22.1882 18 21.3176 19.25C20.4471 20.5 19.3882 21.6562 18.1412 22.7188C16.8941 23.7812 15.4941 24.7083 13.9412 25.5ZM15.7059 22.125C17.6353 20.6875 19.1471 18.9948 20.2412 17.0469C21.3353 15.099 21.8824 13.1458 21.8824 11.1875C21.8824 8.60417 20.9706 6.48958 19.1471 4.84375C17.3235 3.19792 15.0235 2.375 12.2471 2.375C9.42353 2.375 7.02941 3.24479 5.06471 4.98438C3.1 6.72396 2.11765 8.82292 2.11765 11.2812C2.11765 13.7396 3.1 15.8385 5.06471 17.5781C7.02941 19.3177 9.4 20.1875 12.1765 20.1875H15.7059V22.125ZM12.2471 18.5312C12.6235 18.5312 12.9412 18.4167 13.2 18.1875C13.4588 17.9583 13.5882 17.6771 13.5882 17.3438C13.5882 17.0104 13.4588 16.7292 13.2 16.5C12.9412 16.2708 12.6235 16.1562 12.2471 16.1562C11.8706 16.1562 11.5529 16.2708 11.2941 16.5C11.0353 16.7292 10.9059 17.0104 10.9059 17.3438C10.9059 17.6771 11.0353 17.9583 11.2941 18.1875C11.5529 18.4167 11.8706 18.5312 12.2471 18.5312ZM11.2941 14.2812H13.0588C13.0588 13.7604 13.1588 13.3281 13.3588 12.9844C13.5588 12.6406 13.9765 12.1875 14.6118 11.625C15.2471 11.0625 15.6941 10.5469 15.9529 10.0781C16.2118 9.60938 16.3412 9.10417 16.3412 8.5625C16.3412 7.625 15.9824 6.85417 15.2647 6.25C14.5471 5.64583 13.5882 5.34375 12.3882 5.34375C11.4 5.34375 10.5176 5.57292 9.74118 6.03125C8.96471 6.48958 8.38824 7.11458 8.01177 7.90625L9.63529 8.5C9.89412 7.95833 10.2529 7.55729 10.7118 7.29688C11.1706 7.03646 11.6941 6.90625 12.2824 6.90625C12.9882 6.90625 13.5412 7.05729 13.9412 7.35938C14.3412 7.66146 14.5412 8.0625 14.5412 8.5625C14.5412 8.95833 14.4118 9.35938 14.1529 9.76562C13.8941 10.1719 13.4353 10.6771 12.7765 11.2812C12.1412 11.8646 11.7353 12.3333 11.5588 12.6875C11.3824 13.0417 11.2941 13.5729 11.2941 14.2812Z" fill="black"/>
</svg>
