<svg width="25" height="25" viewBox="0 0 25 25" fill="none" xmlns="http://www.w3.org/2000/svg">
<path d="M9.55153 25L8.9313 21.0625C8.53849 20.9167 8.125 20.7188 7.69084 20.4688C7.25668 20.2188 6.87421 19.9583 6.54342 19.6875L2.88406 21.375L0 16.25L3.34924 13.7812C3.30789 13.5937 3.28204 13.3802 3.27171 13.1406C3.26137 12.901 3.2562 12.6875 3.2562 12.5C3.2562 12.3125 3.26137 12.099 3.27171 11.8594C3.28204 11.6198 3.30789 11.4063 3.34924 11.2188L0 8.75L2.88406 3.625L6.54342 5.3125C6.87421 5.04167 7.25668 4.78125 7.69084 4.53125C8.125 4.28125 8.53849 4.09375 8.9313 3.96875L9.55153 0H15.2576L15.8779 3.9375C16.2707 4.08333 16.6893 4.27604 17.1338 4.51562C17.5783 4.75521 17.9556 5.02083 18.2657 5.3125L21.9251 3.625L24.8092 8.75L21.4599 11.1562C21.5013 11.3646 21.5271 11.5885 21.5375 11.8281C21.5478 12.0677 21.553 12.2917 21.553 12.5C21.553 12.7083 21.5478 12.9271 21.5375 13.1562C21.5271 13.3854 21.5013 13.6042 21.4599 13.8125L24.8092 16.25L21.9251 21.375L18.2657 19.6875C17.935 19.9583 17.5576 20.224 17.1338 20.4844C16.71 20.7448 16.2913 20.9375 15.8779 21.0625L15.2576 25H9.55153ZM12.4046 16.5625C13.521 16.5625 14.472 16.1667 15.2576 15.375C16.0433 14.5833 16.4361 13.625 16.4361 12.5C16.4361 11.375 16.0433 10.4167 15.2576 9.625C14.472 8.83333 13.521 8.4375 12.4046 8.4375C11.2882 8.4375 10.3371 8.83333 9.55153 9.625C8.7659 10.4167 8.37309 11.375 8.37309 12.5C8.37309 13.625 8.7659 14.5833 9.55153 15.375C10.3371 16.1667 11.2882 16.5625 12.4046 16.5625Z" fill="black"/>
</svg>
