<svg width="35" height="35" viewBox="0 0 35 35" fill="none" xmlns="http://www.w3.org/2000/svg">
<path d="M8.00625 26.9937L20.6938 20.7375L26.95 8.05L14.2625 14.3063L8.00625 26.9937ZM17.5 19.25C17.0042 19.25 16.5885 19.0823 16.2531 18.7469C15.9177 18.4115 15.75 17.9958 15.75 17.5C15.75 17.0042 15.9177 16.5885 16.2531 16.2531C16.5885 15.9177 17.0042 15.75 17.5 15.75C17.9958 15.75 18.4115 15.9177 18.7469 16.2531C19.0823 16.5885 19.25 17.0042 19.25 17.5C19.25 17.9958 19.0823 18.4115 18.7469 18.7469C18.4115 19.0823 17.9958 19.25 17.5 19.25ZM17.5 35C15.1083 35 12.8479 34.5406 10.7188 33.6219C8.58958 32.7031 6.73021 31.449 5.14062 29.8594C3.55104 28.2698 2.29687 26.4104 1.37812 24.2812C0.459375 22.1521 0 19.8917 0 17.5C0 15.0792 0.459375 12.8042 1.37812 10.675C2.29687 8.54583 3.55104 6.69375 5.14062 5.11875C6.73021 3.54375 8.58958 2.29687 10.7188 1.37812C12.8479 0.459375 15.1083 0 17.5 0C19.9208 0 22.1958 0.459375 24.325 1.37812C26.4542 2.29687 28.3063 3.54375 29.8813 5.11875C31.4563 6.69375 32.7031 8.54583 33.6219 10.675C34.5406 12.8042 35 15.0792 35 17.5C35 19.8917 34.5406 22.1521 33.6219 24.2812C32.7031 26.4104 31.4563 28.2698 29.8813 29.8594C28.3063 31.449 26.4542 32.7031 24.325 33.6219C22.1958 34.5406 19.9208 35 17.5 35ZM17.5 32.375C21.6417 32.375 25.1562 30.924 28.0437 28.0219C30.9312 25.1198 32.375 21.6125 32.375 17.5C32.375 13.3583 30.9312 9.84375 28.0437 6.95625C25.1562 4.06875 21.6417 2.625 17.5 2.625C13.3875 2.625 9.88021 4.06875 6.97813 6.95625C4.07604 9.84375 2.625 13.3583 2.625 17.5C2.625 21.6125 4.07604 25.1198 6.97813 28.0219C9.88021 30.924 13.3875 32.375 17.5 32.375Z" fill="black"/>
</svg>
