<svg width="89" height="88" viewBox="0 0 89 88" fill="none" xmlns="http://www.w3.org/2000/svg">
<path d="M35.9 57.7C34.3667 57.7 33.0833 57.1833 32.05 56.15C31.0167 55.1167 30.5 53.8333 30.5 52.3C30.5 50.7667 31.0167 49.4833 32.05 48.45C33.0833 47.4167 34.3667 46.9 35.9 46.9C37.4333 46.9 38.7167 47.4167 39.75 48.45C40.7833 49.4833 41.3 50.7667 41.3 52.3C41.3 53.8333 40.7833 55.1167 39.75 56.15C38.7167 57.1833 37.4333 57.7 35.9 57.7ZM61.2 57.7C59.6667 57.7 58.3833 57.1833 57.35 56.15C56.3167 55.1167 55.8 53.8333 55.8 52.3C55.8 50.7667 56.3167 49.4833 57.35 48.45C58.3833 47.4167 59.6667 46.9 61.2 46.9C62.7333 46.9 64.0167 47.4167 65.05 48.45C66.0833 49.4833 66.6 50.7667 66.6 52.3C66.6 53.8333 66.0833 55.1167 65.05 56.15C64.0167 57.1833 62.7333 57.7 61.2 57.7ZM48.5 82C57.9667 82 66 78.7 72.6 72.1C79.2 65.5 82.5 57.4667 82.5 48C82.5 46.2667 82.3667 44.5667 82.1 42.9C81.8333 41.2333 81.5 39.7 81.1 38.3C79.7667 38.6333 78.3167 38.8667 76.75 39C75.1833 39.1333 73.5667 39.2 71.9 39.2C65.4333 39.2 59.3167 37.8667 53.55 35.2C47.7833 32.5333 42.8667 28.7333 38.8 23.8C36.5333 29.2 33.2833 33.9167 29.05 37.95C24.8167 41.9833 19.9667 45.1 14.5 47.3V48C14.5 57.4667 17.8 65.5 24.4 72.1C31 78.7 39.0333 82 48.5 82ZM39.3 15.3C45.1667 22.1667 50.5833 26.8667 55.55 29.4C60.5167 31.9333 65.9667 33.2 71.9 33.2C73.5 33.2 74.7667 33.1667 75.7 33.1C76.6333 33.0333 77.6667 32.8333 78.8 32.5C75.8 27.1 71.7167 22.6667 66.55 19.2C61.3833 15.7333 55.3667 14 48.5 14C46.7 14 45 14.1333 43.4 14.4C41.8 14.6667 40.4333 14.9667 39.3 15.3ZM15.4 40.2C18.6 39 22.25 36.2833 26.35 32.05C30.45 27.8167 33.3667 22.7 35.1 16.7C29.3 19.3 24.9167 22.6167 21.95 26.65C18.9833 30.6833 16.8 35.2 15.4 40.2ZM12.2 31.1C14.2 26.8333 16.8667 23.0333 20.2 19.7C23.5333 16.3667 27.3333 13.7 31.6 11.7C30.3333 9.96667 28.7333 8.58333 26.8 7.55C24.8667 6.51667 22.7333 6 20.4 6C16.5333 6 13.25 7.35 10.55 10.05C7.85 12.75 6.5 16.0333 6.5 19.9C6.5 22.2333 7.01667 24.3667 8.05 26.3C9.08333 28.2333 10.4667 29.8333 12.2 31.1ZM48.5 88C42.9667 88 37.7667 86.95 32.9 84.85C28.0333 82.75 23.8 79.9 20.2 76.3C16.6 72.7 13.75 68.4667 11.65 63.6C9.55 58.7333 8.5 53.5333 8.5 48C8.5 46.0667 8.63333 44.15 8.9 42.25C9.16667 40.35 9.56667 38.5333 10.1 36.8C7.23333 35.0667 4.91667 32.7167 3.15 29.75C1.38333 26.7833 0.5 23.5 0.5 19.9C0.5 14.3667 2.43333 9.66667 6.3 5.8C10.1667 1.93333 14.8667 0 20.4 0C23.9333 0 27.1833 0.85 30.15 2.55C33.1167 4.25 35.5 6.6 37.3 9.6C39.0333 9.06667 40.85 8.66667 42.75 8.4C44.65 8.13333 46.5667 8 48.5 8C54.0333 8 59.2333 9.05 64.1 11.15C68.9667 13.25 73.2 16.1 76.8 19.7C80.4 23.3 83.25 27.5333 85.35 32.4C87.45 37.2667 88.5 42.4667 88.5 48C88.5 53.5333 87.45 58.7333 85.35 63.6C83.25 68.4667 80.4 72.7 76.8 76.3C73.2 79.9 68.9667 82.75 64.1 84.85C59.2333 86.95 54.0333 88 48.5 88Z" fill="black"/>
</svg>
