<svg width="16" height="16" viewBox="0 0 16 16" fill="none" xmlns="http://www.w3.org/2000/svg">
<path d="M9.66667 15.2708V13.9792C11.0139 13.5903 12.1146 12.8437 12.9687 11.7396C13.8229 10.6354 14.25 9.38194 14.25 7.97917C14.25 6.57639 13.8264 5.31944 12.9792 4.20833C12.1319 3.09722 11.0278 2.35417 9.66667 1.97917V0.6875C11.3889 1.07639 12.7917 1.94792 13.875 3.30208C14.9583 4.65625 15.5 6.21528 15.5 7.97917C15.5 9.74306 14.9583 11.3021 13.875 12.6562C12.7917 14.0104 11.3889 14.8819 9.66667 15.2708ZM0.5 10.5V5.5H3.83333L8 1.33333V14.6667L3.83333 10.5H0.5ZM9.25 11.5V4.47917C10.0139 4.71528 10.6215 5.15972 11.0729 5.8125C11.5243 6.46528 11.75 7.19444 11.75 8C11.75 8.79167 11.5208 9.51389 11.0625 10.1667C10.6042 10.8194 10 11.2639 9.25 11.5Z" fill="black"/>
</svg>
